PathFileType	4	(X/Y/Z)	D:\MotionData\NordSprintingStudy\Kristen_Nord_test_zero_plates\Trimmed_NordZeroed000004.trc
DataRate	CameraRate	NumFrames	NumMarkers	Units	OrigDataRate	OrigDataStartFrame	OrigNumFrames
200.00	200.00	      6	52	mm	200.00	957	      1912
Frame#	Time	C7			R_Shoulder			L_Shoulder			Sternum			R_humerus			R_elbow_med			R_elbow_lat			R_forearm			R_wrist_radius			R_wrist_ulna			L_humerus			L_elbow_med			L_elbow_lat			L_forearm			L_wrist_radius			L_wrist_ulna			r.ASIS			r.PSIS			r_IC			L.ASIS			L.PSIS			l_IC			r_thigh1			r_thigh2			r_thigh3			r_thigh4			r_thigh5			r_knee			r_mknee			r_shank_antsup			r_sh2			r_sh3			r_sh4			r_ankle			r_mankle			r_calc			r_5meta			r_toe			L_thigh1			L_thigh2			L_thigh3			L_thigh4			L_knee			L_mknee			L_shank_antsup			L_sh2			L_sh3			L_ankle			L_mankle			L_calc			L_5meta			L_toe			
		X1	Y1	Z1	X2	Y2	Z2	X3	Y3	Z3	X4	Y4	Z4	X5	Y5	Z5	X6	Y6	Z6	X7	Y7	Z7	X8	Y8	Z8	X9	Y9	Z9	X10	Y10	Z10	X11	Y11	Z11	X12	Y12	Z12	X13	Y13	Z13	X14	Y14	Z14	X15	Y15	Z15	X16	Y16	Z16	X17	Y17	Z17	X18	Y18	Z18	X19	Y19	Z19	X20	Y20	Z20	X21	Y21	Z21	X22	Y22	Z22	X23	Y23	Z23	X24	Y24	Z24	X25	Y25	Z25	X26	Y26	Z26	X27	Y27	Z27	X28	Y28	Z28	X29	Y29	Z29	X30	Y30	Z30	X31	Y31	Z31	X32	Y32	Z32	X33	Y33	Z33	X34	Y34	Z34	X35	Y35	Z35	X36	Y36	Z36	X37	Y37	Z37	X38	Y38	Z38	X39	Y39	Z39	X40	Y40	Z40	X41	Y41	Z41	X42	Y42	Z42	X43	Y43	Z43	X44	Y44	Z44	X45	Y45	Z45	X46	Y46	Z46	X47	Y47	Z47	X48	Y48	Z48	X49	Y49	Z49	X50	Y50	Z50	X51	Y51	Z51	X52	Y52	Z52	

957	4.780	1226.35437	619.16870	1226.96826	1343.29346	667.13641	1218.97144	1091.31738	644.48859	1229.31665	1210.13293	726.33954	1141.43176	1505.35303	595.13672	1193.40198	1635.21338	613.87140	1115.57275	1617.68689	551.65393	1171.20825	1620.12000	642.47089	1258.03406	1576.61243	761.57001	1293.17908	1634.76404	735.66864	1322.26526	949.00208	534.82306	1198.35181	792.34680	548.66315	1135.88025	821.92896	497.52081	1204.16626	838.90778	574.11627	1272.18530	842.38983	685.16736	1329.53833	913.97675	679.82123	1307.54346	1340.41272	551.40485	698.44275	1307.41699	435.65268	856.22986	1385.10864	526.44116	811.42957	1111.43127	521.98541	695.41913	1192.90088	420.78934	858.90558	1080.30090	517.34308	804.70978	1362.29016	473.67926	479.72772	1355.20081	428.86264	372.23022	1392.71582	390.28107	356.15826	1420.61096	388.17313	511.71201	1409.56995	345.17239	403.43896	1393.68469	314.83041	303.99020	1270.18933	300.61102	307.69513	1418.38635	208.40295	309.72131	1426.25574	86.82236	320.74252	1423.22437	212.79617	387.22806	1415.24414	96.39079	401.32394	1425.70129	-72.05644	365.57278	1345.73157	-72.37920	349.19315	1361.75439	-77.19180	438.77960	1429.64587	-191.81108	302.63522	1389.40820	-178.71558	252.99316	1038.09985	411.44827	529.19690	1030.04089	356.96378	400.22809	1049.24683	303.55063	578.64960	1060.30273	254.21414	448.70590	1034.17603	265.46338	337.83496	1160.39209	268.06882	309.55295	1026.64075	166.00017	323.38464	1040.53845	174.79994	411.44333	1048.78418	53.09518	411.70792	1082.64771	-110.12092	379.79999	1157.46472	-101.44827	350.70032	1126.91272	-113.78915	437.21619	1107.21924	-243.42758	299.34683	1140.63989	-215.94232	256.12436	
958	4.785	1226.37817	619.38531	1226.90906	1343.26111	667.33826	1218.90076	1091.27563	644.42871	1229.33618	1210.14453	726.49957	1141.32556	1505.33008	595.37189	1193.32764	1634.91870	614.02429	1115.66309	1617.67090	551.89581	1171.17151	1620.07727	642.72235	1257.96497	1576.54773	761.87561	1292.99561	1634.71509	735.91064	1322.20544	949.05933	534.93622	1198.24634	792.39624	548.69122	1135.72473	821.96698	497.56400	1204.03381	838.89441	574.18164	1272.07690	842.46832	685.34058	1329.22156	913.93500	679.88953	1307.37036	1340.40808	551.52643	698.37848	1307.41650	435.85309	856.19897	1385.10168	526.62805	811.37018	1111.44958	522.06110	695.40582	1192.93188	420.96005	858.87494	1080.28320	517.36957	804.76880	1362.26392	473.80533	479.68787	1355.18115	428.89145	372.21567	1392.67969	390.29974	356.11499	1420.62183	388.28760	511.67426	1409.58948	345.23459	403.41599	1393.67065	314.82550	304.01242	1270.20081	300.61411	307.69458	1418.42419	208.41898	309.70807	1426.31238	86.84417	320.75116	1423.25952	212.80669	387.19922	1415.33765	96.41208	401.40442	1425.69653	-72.06799	365.58887	1345.76917	-72.39703	349.23798	1361.74365	-77.21502	438.84521	1429.69250	-191.81291	302.63388	1389.39587	-178.64320	253.14592	1038.09680	411.51483	529.14484	1030.05688	357.02051	400.25974	1049.28186	303.61713	578.65808	1060.31543	254.23819	448.70197	1034.21082	265.45657	337.82541	1160.38733	268.10034	309.54028	1026.67566	166.01199	323.39713	1040.55481	174.82050	411.47992	1048.41882	53.67950	411.92905	1082.74585	-110.10938	379.82828	1157.57703	-101.40482	350.67078	1127.00366	-113.75195	437.23364	1107.37964	-243.41774	299.33862	1140.73462	-215.92662	256.17566	
959	4.790	1226.30151	619.64221	1226.81409	1343.23193	667.55121	1218.84558	1091.16711	644.78772	1229.19263	1210.11328	726.65558	1141.19495	1505.28406	595.56696	1193.26233	1634.91553	614.26434	1115.54504	1617.64514	552.09021	1171.11890	1620.02295	642.95905	1257.88611	1576.46252	762.09302	1292.94202	1634.64795	736.19250	1322.08826	949.06232	535.06964	1198.14966	792.40979	548.67700	1135.59619	822.02051	497.59189	1203.90308	838.89569	574.26514	1271.94983	842.32361	685.29419	1329.22839	913.89435	680.00171	1307.21216	1340.38037	551.63965	698.29541	1307.43408	436.03287	856.15216	1385.09375	526.81812	811.30469	1111.43604	522.18823	695.29376	1192.95081	421.14551	858.82526	1080.29248	517.50311	804.65228	1362.29871	473.85590	479.60709	1355.19434	428.92004	372.20526	1392.74072	390.34088	356.12283	1420.61694	388.33441	511.65964	1409.59045	345.23590	403.43045	1393.65491	314.83682	304.01245	1270.20435	300.62555	307.69662	1418.42126	208.42355	309.68964	1426.55200	86.77014	321.32312	1423.27441	212.80588	387.19186	1415.37463	96.46570	401.33939	1425.76477	-72.05538	365.59830	1345.79907	-72.41050	349.28961	1361.90332	-77.17122	438.85114	1429.73022	-191.81219	302.64053	1389.39905	-178.68181	253.09332	1038.07813	411.59653	529.11182	1030.05139	357.03381	400.22443	1049.27515	303.68478	578.64154	1060.32446	254.25108	448.72113	1034.21082	265.45554	337.84229	1160.37585	268.10971	309.54770	1026.69421	166.00552	323.38739	1040.56689	174.82135	411.48608	1048.46106	53.68012	411.93726	1082.84167	-110.07878	379.79898	1157.67822	-101.40641	350.67511	1127.09680	-113.71509	437.22330	1107.51282	-243.39948	299.41360	1140.81238	-215.94255	256.15887	
960	4.795	1226.32642	619.88751	1226.74731	1343.23572	667.76361	1218.74377	1091.20557	644.78064	1229.11987	1210.09204	726.81403	1141.07214	1505.24597	595.80463	1193.16870	1634.93567	614.49432	1115.42493	1617.61035	552.32281	1171.03540	1619.99084	643.22748	1257.75610	1576.39648	762.34399	1292.81494	1634.61072	736.45270	1321.98535	949.08691	535.10730	1197.99902	792.44312	548.69086	1135.45471	822.07428	497.64151	1203.76794	838.95715	574.29889	1271.76624	842.38678	685.47253	1328.91333	913.85413	680.10156	1307.05554	1340.39368	551.76111	698.21313	1307.43799	436.20068	856.08691	1385.10425	526.98584	811.23395	1111.41772	522.27826	695.26715	1192.99097	421.29498	858.76514	1080.29993	517.61530	804.61102	1362.28979	473.91519	479.54504	1355.18347	428.94153	372.17209	1392.69690	390.36261	356.09164	1420.61646	388.43469	511.62296	1409.57190	345.27606	403.42136	1393.66821	314.85098	304.01138	1270.19543	300.63739	307.69666	1418.43494	208.41780	309.70355	1426.57153	86.78059	321.31528	1423.32251	212.81693	387.19476	1415.52405	96.47031	401.47095	1425.83142	-72.04285	365.59073	1345.81140	-72.39948	349.32437	1361.96802	-77.19390	438.86496	1429.78308	-191.78087	302.65103	1389.39600	-178.69975	253.13545	1038.08459	411.59741	529.06952	1030.00769	357.12729	400.20581	1049.31555	303.75446	578.59570	1060.32861	254.30707	448.70255	1034.19702	265.45685	337.83734	1160.37964	268.17340	309.54355	1026.71313	166.00612	323.41080	1040.61597	174.83553	411.47034	1048.54053	53.70901	411.95538	1082.90869	-110.10139	379.74078	1157.73792	-101.33498	350.65271	1127.19751	-113.67862	437.18774	1107.61926	-243.40787	299.40869	1140.92554	-215.94054	256.26025	
961	4.800	1226.28821	620.12701	1226.63965	1343.23669	667.96777	1218.63391	1091.18030	644.97772	1228.99036	1210.07715	727.00739	1140.95007	1505.23694	595.99457	1193.05957	1634.91138	614.66846	1115.29797	1617.61743	552.51245	1170.94214	1619.93420	643.43329	1257.66626	1576.32056	762.58490	1292.68457	1634.54211	736.69513	1321.82080	949.15466	535.23352	1197.85303	792.47510	548.70245	1135.32117	822.10785	497.68045	1203.65100	838.94586	574.36084	1271.56824	842.21362	685.44977	1328.90674	913.83453	680.22858	1306.86218	1340.39087	551.88086	698.14032	1307.46069	436.38913	856.04633	1385.14063	527.17633	811.13080	1111.41907	522.39478	695.12549	1193.02539	421.47806	858.65649	1080.29456	517.73132	804.50299	1362.34387	474.00903	479.48395	1355.19519	428.98026	372.14301	1392.72070	390.36185	356.06851	1420.63464	388.49826	511.57050	1409.61584	345.29388	403.40726	1393.69214	314.85080	303.92792	1270.19507	300.61548	307.70901	1418.43677	208.43735	309.66458	1426.39661	86.84332	320.77347	1423.33057	212.79808	387.19699	1415.43726	96.44555	401.36423	1425.89404	-72.04411	365.54791	1345.84216	-72.39647	349.37286	1362.08557	-77.16348	438.89050	1429.86914	-191.77463	302.63248	1389.45386	-178.73358	253.07806	1038.08081	411.64151	529.06836	1030.01636	357.15024	400.16068	1049.33850	303.79816	578.59723	1060.34863	254.33408	448.72702	1034.19482	265.49091	337.82874	1160.37891	268.18445	309.55408	1026.71204	165.98711	323.40802	1040.61804	174.83055	411.46085	1048.60449	53.69443	411.94189	1083.02112	-110.10224	379.79019	1157.86487	-101.33665	350.59616	1127.31079	-113.64254	437.12936	1107.79321	-243.40860	299.43896	1141.05127	-215.93231	256.18887	
962	4.805	1226.26404	620.34412	1226.50427	1343.22485	668.17218	1218.48376	1091.17114	645.14478	1228.83875	1210.11865	727.18665	1140.79761	1505.19946	596.22186	1192.93188	1634.93396	614.86615	1115.14148	1617.60352	552.71277	1170.80701	1619.90759	643.66064	1257.53625	1576.25488	762.82141	1292.54492	1634.52649	736.93933	1321.68140	949.24591	535.38580	1197.69519	792.47742	548.70044	1135.14612	822.16321	497.74057	1203.49255	838.98566	574.43494	1271.40649	842.28210	685.51257	1328.58740	913.79352	680.32031	1306.66443	1340.42432	552.02899	698.05756	1307.50415	436.54425	855.92657	1385.16614	527.35138	811.00238	1111.39380	522.50885	695.08862	1193.08228	421.61813	858.57019	1080.31714	517.83978	804.43842	1362.35010	474.05585	479.42889	1355.20605	428.97980	372.06079	1392.72168	390.38022	356.02634	1420.67627	388.55978	511.55054	1409.64771	345.32684	403.39890	1393.71008	314.83224	303.89038	1270.20227	300.63632	307.73083	1418.48792	208.43117	309.68491	1426.46350	86.85201	320.76688	1423.40161	212.82509	387.17294	1415.61218	96.47217	401.49405	1425.97668	-72.02570	365.47018	1345.94458	-72.38739	349.34015	1362.19653	-77.17133	438.83447	1429.96814	-191.68936	302.55679	1389.54077	-178.63683	253.14987	1038.03369	411.70111	529.01447	1029.99487	357.15942	400.15778	1049.36829	303.87137	578.60278	1060.36462	254.35686	448.68729	1034.20520	265.50320	337.80261	1160.39148	268.22427	309.50613	1026.74927	165.99416	323.41370	1040.69482	174.79149	411.42133	1048.70129	53.70600	411.92911	1083.11145	-110.10914	379.79715	1158.02185	-101.26429	350.47302	1127.43787	-113.61163	437.06802	1107.95581	-243.38086	299.38617	1141.18762	-215.91005	256.15466	
